Coordinates
version=1
nRows=29
nColumns=15
inDegrees=yes

Units are S.I. units (second, meters, Newtons, ...)
Angles are in degrees.

endheader
time	sacrum_pitch	sacrum_roll	sacrum_yaw	sacrum_x	sacrum_y	sacrum_z	sacroiliac_flx	hip_flx	hip_add	hip_int	knee_flx	ankle_flx	ankle_add	ankle_int
9.30000000	30.00000000	0.00000000	0.00000000	0.06159283	0.06185294	0.00000000	0.00000000	54.06511017	0.00000000	0.00000000	-103.56488622	21.44671283	0.00000000	0.00000000
9.30500000	30.00000000	0.00000000	0.00000000	0.06115886	0.06173618	0.00000000	0.00000000	54.51416002	0.00000000	0.00000000	-102.78769306	19.66167808	0.00000000	0.00000000
9.31000000	30.00000000	0.00000000	0.00000000	0.06072491	0.06165413	0.00000000	0.00000000	54.84524518	0.00000000	0.00000000	-101.95934947	17.97451327	0.00000000	0.00000000
9.31500000	30.00000000	0.00000000	0.00000000	0.06020644	0.06173169	0.00000000	0.00000000	55.31122706	0.00000000	0.00000000	-100.87136999	16.51204478	0.00000000	0.00000000
9.32000000	30.00000000	0.00000000	0.00000000	0.05968761	0.06157652	0.00000000	0.00000000	55.69674860	0.00000000	0.00000000	-99.84136772	14.95489518	0.00000000	0.00000000
9.32500000	30.00000000	0.00000000	0.00000000	0.05876012	0.06263954	0.00000000	0.00000000	56.23028860	0.00000000	0.00000000	-98.73007609	13.38333581	0.00000000	0.00000000
9.33000000	30.00000000	0.00000000	0.00000000	0.05839165	0.06267114	0.00000000	0.00000000	56.71942421	0.00000000	0.00000000	-97.74418200	12.10179618	0.00000000	0.00000000
9.33500000	30.00000000	0.00000000	0.00000000	0.05793947	0.06246637	0.00000000	0.00000000	56.75944929	0.00000000	0.00000000	-97.14888748	11.29968456	0.00000000	0.00000000
9.34000000	30.00000000	0.00000000	0.00000000	0.05752145	0.06238562	0.00000000	0.00000000	56.95830423	0.00000000	0.00000000	-96.64384567	12.29472932	0.00000000	0.00000000
9.34500000	30.00000000	0.00000000	0.00000000	0.05696101	0.06231579	0.00000000	0.00000000	57.15570081	0.00000000	0.00000000	-96.63527741	14.07518156	0.00000000	0.00000000
9.35000000	30.00000000	0.00000000	0.00000000	0.05653678	0.06228169	0.00000000	0.00000000	57.38500194	0.00000000	0.00000000	-96.80437343	15.31674127	0.00000000	0.00000000
9.35500000	30.00000000	0.00000000	0.00000000	0.05613108	0.06240474	0.00000000	0.00000000	57.66256721	0.00000000	0.00000000	-97.10155176	16.83600165	0.00000000	0.00000000
9.36000000	30.00000000	0.00000000	0.00000000	0.05578394	0.06242874	0.00000000	0.00000000	57.82509640	0.00000000	0.00000000	-97.29108771	18.28356237	0.00000000	0.00000000
9.36500000	30.00000000	0.00000000	0.00000000	0.05539876	0.06243323	0.00000000	0.00000000	57.84923225	0.00000000	0.00000000	-97.33151428	19.57022468	0.00000000	0.00000000
9.37000000	30.00000000	0.00000000	0.00000000	0.05499883	0.06249394	0.00000000	0.00000000	57.93884109	0.00000000	0.00000000	-97.21516245	20.58552119	0.00000000	0.00000000
9.37500000	30.00000000	0.00000000	0.00000000	0.05458479	0.06256720	0.00000000	0.00000000	57.92431445	0.00000000	0.00000000	-97.22605970	21.20013444	0.00000000	0.00000000
9.38000000	30.00000000	0.00000000	0.00000000	0.05419233	0.06264922	0.00000000	0.00000000	57.90903913	0.00000000	0.00000000	-97.30202120	21.81369589	0.00000000	0.00000000
9.38500000	30.00000000	0.00000000	0.00000000	0.05372404	0.06215973	0.00000000	0.00000000	57.70183160	0.00000000	0.00000000	-97.20628590	22.16247601	0.00000000	0.00000000
9.39000000	30.00000000	0.00000000	0.00000000	0.05335228	0.06288779	0.00000000	0.00000000	57.80360448	0.00000000	0.00000000	-97.11171357	22.62818525	0.00000000	0.00000000
9.39500000	30.00000000	0.00000000	0.00000000	0.05284315	0.06268808	0.00000000	0.00000000	57.75810606	0.00000000	0.00000000	-96.85863884	22.72803410	0.00000000	0.00000000
9.40000000	30.00000000	0.00000000	0.00000000	0.05255091	0.06310060	0.00000000	0.00000000	57.88100302	0.00000000	0.00000000	-96.64772625	23.00618739	0.00000000	0.00000000
9.40500000	30.00000000	0.00000000	0.00000000	0.05216933	0.06326244	0.00000000	0.00000000	58.01442592	0.00000000	0.00000000	-96.23887232	23.06370629	0.00000000	0.00000000
9.41000000	30.00000000	0.00000000	0.00000000	0.05183073	0.06300977	0.00000000	0.00000000	58.12625873	0.00000000	0.00000000	-96.03344856	23.23038971	0.00000000	0.00000000
9.41500000	30.00000000	0.00000000	0.00000000	0.05129178	0.06275220	0.00000000	0.00000000	58.25283565	0.00000000	0.00000000	-95.79240682	23.41479134	0.00000000	0.00000000
9.42000000	30.00000000	0.00000000	0.00000000	0.05100072	0.06241994	0.00000000	0.00000000	58.35646698	0.00000000	0.00000000	-95.59907989	23.62751572	0.00000000	0.00000000
9.42500000	30.00000000	0.00000000	0.00000000	0.05058750	0.06277552	0.00000000	0.00000000	58.39916101	0.00000000	0.00000000	-95.26479933	23.64162511	0.00000000	0.00000000
9.43000000	30.00000000	0.00000000	0.00000000	0.05033119	0.06269035	0.00000000	0.00000000	58.52406935	0.00000000	0.00000000	-95.13106976	23.79012519	0.00000000	0.00000000
9.43500000	30.00000000	0.00000000	0.00000000	0.04997362	0.06278788	0.00000000	0.00000000	58.77424455	0.00000000	0.00000000	-94.87332797	23.79695983	0.00000000	0.00000000
9.44000000	30.00000000	0.00000000	0.00000000	0.04956569	0.06285843	0.00000000	0.00000000	58.93542019	0.00000000	0.00000000	-94.50160844	23.84975378	0.00000000	0.00000000
